<svg width="233" height="72" viewBox="0 0 233 72" fill="none" xmlns="http://www.w3.org/2000/svg">
<mask id="mask0" mask-type="alpha" maskUnits="userSpaceOnUse" x="0" y="0" width="233" height="72">
<rect width="233" height="72" fill="white"/>
</mask>
<g mask="url(#mask0)">
<path fill-rule="evenodd" clip-rule="evenodd" d="M41.8212 25.3545C43.779 25.3545 45.402 25.8846 46.6889 26.9453C47.9754 28.0049 48.8397 29.2855 49.2793 30.7853C49.3232 30.9754 49.3454 31.0959 49.3454 31.1435C49.3454 31.3578 49.1914 31.4888 48.8834 31.5371L45.4178 31.8939H45.3193C45.1213 31.8939 44.9891 31.7626 44.9234 31.5C44.5265 30.6426 44.1264 30.0067 43.7186 29.5878C43.3118 29.1719 42.734 28.9628 41.9859 28.9628C40.7978 28.9628 39.8687 29.4877 39.1972 30.5365C38.526 31.584 38.1914 33.1328 38.1914 35.1809C38.1914 37.2785 38.5482 38.8499 39.2639 39.8981C39.9787 40.9465 40.9743 41.4718 42.2496 41.4718C43.1524 41.4718 43.8896 41.2206 44.4611 40.7217C45.0337 40.2201 45.5939 39.4569 46.1444 38.433C46.2102 38.3142 46.2818 38.2479 46.3591 38.2364C46.4361 38.2249 46.551 38.2308 46.7047 38.2534L49.1465 38.863C49.3454 38.8863 49.4442 39.0058 49.4442 39.2199L49.3784 39.5416C48.9385 40.9216 48.0855 42.1789 46.8208 43.3104C45.5557 44.4426 43.8896 45.0089 41.8212 45.0089C40.1276 45.0089 38.6142 44.5982 37.2831 43.7752C35.9526 42.9542 34.9128 41.8043 34.1653 40.3261C33.4165 38.8499 33.0433 37.1593 33.0433 35.2537C33.0433 33.3245 33.4228 31.6083 34.1819 30.1068C34.9404 28.607 35.9857 27.4383 37.3165 26.6058C38.6482 25.7707 40.1488 25.3545 41.8212 25.3545ZM25.5844 33.2158C25.8266 33.2158 25.9806 33.1853 26.0467 33.1275C26.1124 33.0678 26.1461 32.9293 26.1461 32.7146C26.1461 32.0961 26.0136 31.4773 25.7499 30.8589C25.4855 30.2381 25.1014 29.7264 24.5949 29.3206C24.0883 28.9149 23.4732 28.7127 22.7466 28.7127C21.6474 28.7127 20.7449 29.1312 20.0404 29.9637C19.3365 30.7988 18.9957 31.8703 19.0179 33.1797L25.5844 33.2158ZM18.9521 36.7903C18.9521 38.1225 19.3638 39.2025 20.1892 40.0238C21.0147 40.8448 22.0427 41.2554 23.2744 41.2554C24.0671 41.2554 24.7989 41.0729 25.4692 40.7023C26.1406 40.3337 26.817 39.7188 27.4984 38.863C27.5866 38.7665 27.6746 38.7186 27.7631 38.7186C27.8289 38.7186 27.9389 38.755 28.092 38.8266L30.469 39.8981C30.623 39.9693 30.7003 40.0891 30.7003 40.2552C30.7003 40.3754 30.6563 40.4942 30.5678 40.6133C29.5119 42.2327 28.3788 43.3705 27.1692 44.026C25.9594 44.6816 24.4515 45.0089 22.6478 45.0089C20.9535 45.0089 19.425 44.6044 18.0608 43.7946C16.6958 42.9828 15.6302 41.8588 14.8599 40.4164C14.0896 38.975 13.7043 37.3267 13.7043 35.4687C13.7043 33.467 14.1002 31.6973 14.8926 30.161C15.6851 28.624 16.7567 27.4383 18.1096 26.6058C19.4626 25.7707 20.9423 25.3545 22.5492 25.3545C24.2208 25.3545 25.7056 25.7533 27.0037 26.5514C28.3021 27.3497 29.3146 28.4986 30.04 30.0005C30.7664 31.5 31.1289 33.2874 31.1289 35.3598C31.1289 35.6706 31.1013 35.8847 31.0465 36.0038C30.9913 36.1217 30.8321 36.1945 30.5678 36.2182H19.348C19.0834 36.2182 18.9521 36.4082 18.9521 36.7903ZM1.69239 44.6504C1.23039 44.6504 1 44.4134 1 43.9377V26.3898C1 25.9382 1.17492 25.711 1.52748 25.711H5.38776C5.74062 25.711 5.91614 25.9129 5.91614 26.3199V28.4271C5.91614 28.5236 5.93827 28.5935 5.98193 28.6418C6.02619 28.6897 6.06954 28.7127 6.11471 28.7127C6.18049 28.7127 6.2684 28.6526 6.37814 28.5354C7.0387 27.5805 7.81961 26.8133 8.72087 26.2297C9.62364 25.6453 10.4809 25.3545 11.2955 25.3545C12.0879 25.3545 12.4841 25.5567 12.4841 25.9618V30.1068C12.4841 30.2746 12.439 30.4055 12.3511 30.5001C12.2641 30.5966 12.1422 30.6196 11.9885 30.5716C11.2849 30.3806 10.5149 30.2857 9.67911 30.2857C9.1286 30.2857 8.57293 30.4344 8.01241 30.7332C7.45068 31.0299 6.98898 31.4235 6.62612 31.911C6.26234 32.4001 6.08166 32.8945 6.08166 33.3957V43.8287C6.08166 44.3766 5.79579 44.6504 5.22375 44.6504H1.69239Z" fill="#595959"/>
<mask id="mask1" mask-type="alpha" maskUnits="userSpaceOnUse" x="78" y="18" width="117" height="28">
<path fill-rule="evenodd" clip-rule="evenodd" d="M78.7256 18.1348H194.856V45.0073H78.7256V18.1348Z" fill="white"/>
</mask>
<g mask="url(#mask1)">
<path fill-rule="evenodd" clip-rule="evenodd" d="M189.773 30.6431C189.267 30.0469 188.767 29.6054 188.272 29.3211C187.777 29.0332 187.221 28.8901 186.606 28.8901C185.44 28.8901 184.515 29.4094 183.832 30.4458C183.151 31.4815 182.81 33.0831 182.81 35.2529C182.81 37.4444 183.14 39.047 183.8 40.0584C184.46 41.0711 185.374 41.578 186.54 41.578C187.419 41.578 188.179 41.2619 188.817 40.6296C189.454 39.9987 189.773 39.2667 189.773 38.4332V30.6431ZM190.532 44.6509C190.07 44.6509 189.84 44.4116 189.84 43.9353V42.9347C189.84 42.7443 189.785 42.6498 189.674 42.6498C189.608 42.6498 189.51 42.6964 189.377 42.7926C188.739 43.4593 188.041 43.9953 187.281 44.4001C186.523 44.8049 185.616 45.0074 184.559 45.0074C182.491 45.0074 180.825 44.1746 179.56 42.507C178.295 40.8394 177.662 38.445 177.662 35.3242C177.662 33.3687 177.987 31.6374 178.636 30.1244C179.284 28.6114 180.159 27.4385 181.259 26.6037C182.36 25.7709 183.569 25.353 184.89 25.353C185.747 25.353 186.523 25.509 187.215 25.8172C187.909 26.1281 188.575 26.6037 189.212 27.2481C189.366 27.3673 189.476 27.4251 189.542 27.4251C189.696 27.4251 189.773 27.2711 189.773 26.9622V18.7788C189.773 18.3488 189.95 18.1348 190.302 18.1348H194.327C194.482 18.1348 194.608 18.1945 194.707 18.3143C194.806 18.4335 194.856 18.5993 194.856 18.8133V43.9011C194.856 44.1615 194.8 44.3522 194.69 44.472C194.581 44.5905 194.382 44.6509 194.097 44.6509H190.532ZM159.413 44.6509C159.17 44.6509 158.995 44.5967 158.885 44.4891C158.774 44.3827 158.72 44.1982 158.72 43.9353V26.3904C158.72 25.937 158.895 25.7115 159.248 25.7115H163.241C163.571 25.7115 163.736 25.9134 163.736 26.3185V28.0688C163.736 28.2598 163.79 28.3547 163.9 28.3547C163.967 28.3547 164.044 28.3081 164.131 28.2119C165.034 27.2823 165.936 26.5749 166.838 26.0851C167.74 25.5979 168.697 25.353 169.709 25.353C171.315 25.353 172.586 25.8658 173.52 26.889C174.456 27.9152 174.923 29.284 174.923 30.9992V43.7931C174.923 44.3637 174.659 44.6509 174.13 44.6509H170.468C170.226 44.6509 170.061 44.5967 169.972 44.4891C169.885 44.3827 169.841 44.1982 169.841 43.9353V31.8573C169.841 31.0475 169.637 30.4212 169.23 29.9819C168.824 29.5404 168.224 29.3211 167.432 29.3211C166.771 29.3211 166.161 29.5 165.599 29.8565C165.04 30.2127 164.439 30.7737 163.802 31.536V43.8276C163.802 44.1148 163.736 44.3233 163.603 44.4539C163.472 44.5856 163.252 44.6509 162.944 44.6509H159.413ZM150.47 33.2144C150.712 33.2144 150.866 33.1858 150.932 33.1258C150.998 33.066 151.03 32.9298 151.03 32.7151C151.03 32.0947 150.898 31.4759 150.635 30.8568C150.37 30.2363 149.986 29.7249 149.479 29.3211C148.974 28.9151 148.357 28.7132 147.632 28.7132C146.532 28.7132 145.63 29.1294 144.925 29.9622C144.222 30.797 143.88 31.8695 143.903 33.1802L150.47 33.2144ZM143.836 36.7889C143.836 38.1226 144.249 39.2007 145.074 40.0217C145.899 40.845 146.928 41.256 148.159 41.256C148.951 41.256 149.683 41.0711 150.354 40.7012C151.025 40.3329 151.7 39.719 152.384 38.8609C152.472 38.767 152.559 38.7191 152.647 38.7191C152.714 38.7191 152.823 38.7539 152.977 38.8248L155.353 39.8982C155.507 39.9698 155.585 40.0877 155.585 40.2554C155.585 40.3755 155.541 40.4924 155.452 40.6119C154.396 42.2312 153.264 43.3707 152.053 44.0249C150.843 44.6801 149.337 45.0074 147.532 45.0074C145.838 45.0074 144.309 44.603 142.945 43.7931C141.581 42.9833 140.514 41.857 139.744 40.4156C138.974 38.9755 138.59 37.325 138.59 35.4663C138.59 33.4652 138.986 31.6952 139.777 30.1592C140.569 28.6229 141.641 27.4385 142.995 26.6037C144.348 25.7709 145.827 25.353 147.434 25.353C149.106 25.353 150.589 25.7519 151.889 26.5499C153.187 27.3482 154.198 28.4972 154.924 29.9993C155.65 31.4989 156.013 33.286 156.013 35.3583C156.013 35.6692 155.986 35.8832 155.931 36.003C155.876 36.1219 155.716 36.1928 155.452 36.2167H144.232C143.968 36.2167 143.836 36.4071 143.836 36.7889ZM109.747 44.6509C109.505 44.6509 109.328 44.5967 109.217 44.4891C109.109 44.3827 109.053 44.1982 109.053 43.9353V26.3904C109.053 26.1757 109.103 26.0086 109.202 25.8888C109.3 25.7709 109.427 25.7115 109.581 25.7115H113.541C113.872 25.7115 114.037 25.9134 114.037 26.3185V28.0688C114.037 28.2598 114.092 28.3547 114.201 28.3547C114.268 28.3547 114.345 28.3081 114.433 28.2119C115.357 27.2823 116.259 26.5693 117.139 26.0683C118.018 25.5664 118.954 25.3179 119.944 25.3179C121.11 25.3179 122.1 25.615 122.913 26.2108C123.728 26.806 124.299 27.6161 124.63 28.642C124.652 28.7362 124.696 28.7841 124.762 28.7841C124.85 28.7841 124.949 28.7243 125.059 28.6049C125.874 27.6292 126.791 26.843 127.814 26.2479C128.837 25.6511 129.855 25.353 130.867 25.353C132.408 25.353 133.634 25.8658 134.546 26.889C135.46 27.9152 135.916 29.3211 135.916 31.1072V43.7931C135.916 44.3637 135.652 44.6509 135.124 44.6509H131.461C131.219 44.6509 131.055 44.5967 130.966 44.4891C130.878 44.3827 130.835 44.1982 130.835 43.9353V31.8573C130.835 31.0705 130.636 30.452 130.239 29.9993C129.844 29.5457 129.282 29.3211 128.557 29.3211C127.962 29.3211 127.386 29.5 126.824 29.8565C126.263 30.2127 125.784 30.6431 125.389 31.142C125.257 31.3095 125.163 31.4644 125.108 31.6072C125.054 31.7497 125.026 31.9289 125.026 32.1426V43.7931C125.026 44.3637 124.762 44.6509 124.233 44.6509H120.604C120.384 44.6509 120.224 44.5967 120.125 44.4891C120.026 44.3827 119.977 44.1982 119.977 43.9353V31.8573C119.977 31.0705 119.778 30.452 119.383 29.9993C118.987 29.5457 118.414 29.3211 117.667 29.3211C117.029 29.3211 116.434 29.5 115.885 29.8565C115.335 30.2127 114.751 30.7737 114.135 31.536V43.8276C114.135 44.1148 114.069 44.3233 113.938 44.4539C113.805 44.5856 113.585 44.6509 113.277 44.6509H109.747ZM79.4183 44.6509C79.1761 44.6509 79.0008 44.5967 78.8905 44.4891C78.7805 44.3827 78.7256 44.1982 78.7256 43.9353V26.3904C78.7256 26.1757 78.7747 26.0086 78.8735 25.8888C78.9733 25.7709 79.0997 25.7115 79.2537 25.7115H83.214C83.5432 25.7115 83.7087 25.9134 83.7087 26.3185V28.0688C83.7087 28.2598 83.7642 28.3547 83.8739 28.3547C83.9394 28.3547 84.0167 28.3081 84.1046 28.2119C85.0286 27.2823 85.9308 26.5693 86.8105 26.0683C87.6912 25.5664 88.6255 25.3179 89.6159 25.3179C90.7818 25.3179 91.7721 25.615 92.5858 26.2108C93.4001 26.806 93.9718 27.6161 94.3022 28.642C94.3234 28.7362 94.3683 28.7841 94.4338 28.7841C94.5223 28.7841 94.6205 28.7243 94.7309 28.6049C95.5448 27.6292 96.4637 26.843 97.4862 26.2479C98.509 25.6511 99.5264 25.353 100.539 25.353C102.079 25.353 103.305 25.8658 104.218 26.889C105.132 27.9152 105.588 29.3211 105.588 31.1072V43.7931C105.588 44.3637 105.324 44.6509 104.796 44.6509H101.133C100.891 44.6509 100.726 44.5967 100.638 44.4891C100.55 44.3827 100.506 44.1982 100.506 43.9353V31.8573C100.506 31.0705 100.308 30.452 99.912 29.9993C99.5161 29.5457 98.9552 29.3211 98.2286 29.3211C97.6347 29.3211 97.0569 29.5 96.4961 29.8565C95.9344 30.2127 95.4566 30.6431 95.0601 31.142C94.9288 31.3095 94.8352 31.4644 94.7803 31.6072C94.7251 31.7497 94.6975 31.9289 94.6975 32.1426V43.7931C94.6975 44.3637 94.4338 44.6509 93.9063 44.6509H90.2758C90.0557 44.6509 89.8957 44.5967 89.7971 44.4891C89.6983 44.3827 89.6486 44.1982 89.6486 43.9353V31.8573C89.6486 31.0705 89.4503 30.452 89.0544 29.9993C88.6582 29.5457 88.0871 29.3211 87.3395 29.3211C86.7011 29.3211 86.106 29.5 85.5561 29.8565C85.0071 30.2127 84.4235 30.7737 83.8079 31.536V43.8276C83.8079 44.1148 83.7418 44.3233 83.6099 44.4539C83.4774 44.5856 83.2579 44.6509 82.9496 44.6509H79.4183Z" fill="#595959"/>
</g>
<mask id="mask2" mask-type="alpha" maskUnits="userSpaceOnUse" x="49" y="20" width="28" height="33">
<path fill-rule="evenodd" clip-rule="evenodd" d="M53.2842 24.1162C50.8611 26.5993 49.3623 30.0359 49.3623 33.8279C49.3623 37.6189 50.8611 41.0542 53.2842 43.5364C54.4809 44.7643 55.9026 45.7598 57.4815 46.4551V52.5453L68.9076 46.0275C70.1365 45.3729 71.253 44.5322 72.2234 43.5364C74.6462 41.0542 76.1459 37.6189 76.1459 33.8279C76.1459 30.0359 74.6462 26.5993 72.2234 24.1162C69.8003 21.6308 66.4506 20.0928 62.7538 20.0928C59.0567 20.0928 55.707 21.6308 53.2842 24.1162ZM54.1181 33.528C54.1181 28.6356 57.9843 24.67 62.7538 24.67C64.2908 24.67 65.7329 25.0831 66.9837 25.8054L61.4313 34.0902L59.7532 32.4205C57.7157 30.3939 54.7513 33.5961 56.7854 35.6205L60.269 39.0892C60.5911 39.4076 60.9761 39.632 61.4206 39.7062C62.2686 39.8831 63.0396 39.51 63.5273 38.7746L70.1268 28.9143C70.9284 30.2581 71.3898 31.8366 71.3898 33.528C71.3898 38.4182 67.5237 42.3836 62.7538 42.3836C57.9843 42.3836 54.1181 38.4182 54.1181 33.528Z" fill="white"/>
</mask>
<g mask="url(#mask2)">
<path fill-rule="evenodd" clip-rule="evenodd" d="M53.2842 24.1162C50.8611 26.5993 49.3623 30.0359 49.3623 33.8279C49.3623 37.6189 50.8611 41.0542 53.2842 43.5364C54.4809 44.7643 55.9026 45.7598 57.4815 46.4551V52.5453L68.9076 46.0275C70.1365 45.3729 71.253 44.5322 72.2234 43.5364C74.6462 41.0542 76.1459 37.6189 76.1459 33.8279C76.1459 30.0359 74.6462 26.5993 72.2234 24.1162C69.8003 21.6308 66.4506 20.0928 62.7538 20.0928C59.0567 20.0928 55.707 21.6308 53.2842 24.1162ZM54.1181 33.528C54.1181 28.6356 57.9843 24.67 62.7538 24.67C64.2908 24.67 65.7329 25.0831 66.9837 25.8054L61.4313 34.0902L59.7532 32.4205C57.7157 30.3939 54.7513 33.5961 56.7854 35.6205L60.269 39.0892C60.5911 39.4076 60.9761 39.632 61.4206 39.7062C62.2686 39.8831 63.0396 39.51 63.5273 38.7746L70.1268 28.9143C70.9284 30.2581 71.3898 31.8366 71.3898 33.528C71.3898 38.4182 67.5237 42.3836 62.7538 42.3836C57.9843 42.3836 54.1181 38.4182 54.1181 33.528Z" fill="url(#paint0_linear)"/>
</g>
<path fill-rule="evenodd" clip-rule="evenodd" d="M200.092 43.8163C200.092 43.9752 200.05 44.0878 199.965 44.1555C199.882 44.2228 199.741 44.2544 199.549 44.2544H197.254C196.969 44.2544 196.826 44.1262 196.826 43.87V41.5409C196.826 41.4294 196.856 41.3464 196.914 41.2933C196.972 41.2364 197.047 41.21 197.137 41.21H199.801C199.994 41.21 200.092 41.3145 200.092 41.5225V43.8163Z" fill="#595959"/>
<path fill-rule="evenodd" clip-rule="evenodd" d="M202.095 44.1738C202.028 44.118 201.996 44.0238 201.996 43.8888V34.8789C201.996 34.7694 202.026 34.6853 202.085 34.6224C202.143 34.5618 202.216 34.5316 202.307 34.5316H204.64C204.835 34.5316 204.933 34.6359 204.933 34.8435V35.7426C204.933 35.8402 204.965 35.8891 205.029 35.8891C205.068 35.8891 205.114 35.8638 205.166 35.815C205.71 35.337 206.24 34.9719 206.76 34.7149C207.278 34.4572 207.829 34.3291 208.413 34.3291C209.099 34.3291 209.682 34.4828 210.162 34.7875C210.641 35.0949 210.977 35.5099 211.172 36.0361C211.185 36.085 211.211 36.1088 211.251 36.1088C211.302 36.1088 211.36 36.0784 211.425 36.0175C211.905 35.5165 212.446 35.1118 213.048 34.8068C213.651 34.5012 214.25 34.3478 214.847 34.3478C215.754 34.3478 216.476 34.6106 217.014 35.1368C217.551 35.6636 217.82 36.3834 217.82 37.3014V43.8162C217.82 44.108 217.666 44.2542 217.355 44.2542H215.197C215.053 44.2542 214.956 44.2275 214.905 44.1738C214.853 44.118 214.827 44.0238 214.827 43.8888V37.6877C214.827 37.2822 214.711 36.965 214.477 36.7327C214.244 36.5 213.913 36.3834 213.486 36.3834C213.135 36.3834 212.796 36.4762 212.465 36.6603C212.134 36.843 211.853 37.0633 211.619 37.3198C211.543 37.406 211.486 37.4852 211.455 37.5596C211.422 37.6323 211.406 37.7236 211.406 37.8348V43.8162C211.406 44.108 211.251 44.2542 210.94 44.2542H208.8C208.671 44.2542 208.578 44.2275 208.518 44.1738C208.46 44.118 208.431 44.0238 208.431 43.8888V37.6877C208.431 37.2822 208.314 36.965 208.081 36.7327C207.848 36.5 207.511 36.3834 207.071 36.3834C206.694 36.3834 206.345 36.4762 206.021 36.6603C205.698 36.843 205.354 37.1308 204.991 37.5229V43.8328C204.991 43.9799 204.952 44.0876 204.875 44.1554C204.796 44.2226 204.666 44.2542 204.485 44.2542H202.405C202.261 44.2542 202.158 44.2275 202.095 44.1738Z" fill="#595959"/>
<path fill-rule="evenodd" clip-rule="evenodd" d="M219.92 47.2184C219.753 47.1744 219.669 47.0799 219.669 46.9346V45.5214C219.669 45.3255 219.856 45.2278 220.232 45.2278H221.554C221.943 45.2278 222.28 45.09 222.565 44.8145C222.85 44.5399 222.992 44.2495 222.992 43.9422C222.992 43.8325 222.973 43.7351 222.933 43.6489L219.202 34.9716C219.175 34.8992 219.162 34.8486 219.162 34.8248C219.162 34.7389 219.195 34.6683 219.259 34.6143C219.325 34.5582 219.409 34.5312 219.512 34.5312H221.963C222.052 34.5312 222.139 34.5582 222.225 34.6143C222.308 34.6683 222.363 34.7455 222.389 34.8432L224.548 40.3107C224.586 40.4336 224.637 40.4939 224.702 40.4939C224.754 40.4939 224.812 40.427 224.877 40.2923L227.015 34.8248C227.107 34.6295 227.25 34.5312 227.444 34.5312H229.116C229.206 34.5312 229.28 34.5582 229.339 34.6143C229.397 34.6683 229.426 34.7335 229.426 34.8064C229.426 34.8317 229.414 34.8785 229.388 34.9532L225.402 44.2541C225.04 45.0995 224.657 45.736 224.256 46.1637C223.854 46.5905 223.391 46.8846 222.866 47.0446C222.341 47.2032 221.657 47.2827 220.815 47.2827C220.388 47.2827 220.09 47.2603 219.92 47.2184Z" fill="#595959"/>
</g>
<defs>
<linearGradient id="paint0_linear" x1="49.3622" y1="52.5452" x2="76.1457" y2="52.5452" gradientUnits="userSpaceOnUse">
<stop stop-color="#44A1B6"/>
<stop offset="1" stop-color="#B6216B"/>
</linearGradient>
</defs>
</svg>
